<svg xmlns="http://www.w3.org/2000/svg" width="51.082" height="47.889" viewBox="0 0 51.082 47.889"><defs><style>.a{fill:#fff;fill-rule:evenodd;}</style></defs><path class="a" d="M50.5,1.485a1.6,1.6,0,0,1,.585,1.236v41.5A1.6,1.6,0,0,1,49.8,45.79L33.834,48.983a1.6,1.6,0,0,1-.626,0L17.559,45.854,1.908,48.983A1.6,1.6,0,0,1,0,47.418V5.914A1.6,1.6,0,0,1,1.284,4.349L17.247,1.156a1.6,1.6,0,0,1,.626,0L33.524,4.285,49.174,1.156a1.6,1.6,0,0,1,1.325.329ZM31.926,7.224,19.156,4.67V42.917l12.77,2.554Zm3.193,38.247,12.77-2.554V4.67L35.119,7.224ZM15.963,42.917V4.67L3.193,7.224V45.471Z" transform="translate(0 -1.125)"/></svg>